<?xml version="1.0" encoding="UTF-8" standalone="no"?>
<!DOCTYPE svg PUBLIC "-//W3C//DTD SVG 1.1//EN"
 "http://www.w3.org/Graphics/SVG/1.1/DTD/svg11.dtd">
<!-- Generated by graphviz version 2.43.0 (0)
 -->
<!-- Title: G Pages: 1 -->
<svg width="1004pt" height="504pt"
 viewBox="0.00 0.00 1004.00 504.00" xmlns="http://www.w3.org/2000/svg" xmlns:xlink="http://www.w3.org/1999/xlink">
<g id="graph0" class="graph" transform="scale(1 1) rotate(0) translate(4 500)">
<title>G</title>
<polygon fill="white" stroke="transparent" points="-4,4 -4,-500 1000,-500 1000,4 -4,4"/>
<g id="clust1" class="cluster">
<title>cluster_root</title>
<g id="a_clust1"><a xlink:title="eventq_index=0&#10;full_system=false&#10;sim_quantum=0&#10;time_sync_enable=false&#10;time_sync_period=100000000000&#10;time_sync_spin_threshold=100000000">
<path fill="#bab6ae" stroke="#000000" d="M20,-8C20,-8 976,-8 976,-8 982,-8 988,-14 988,-20 988,-20 988,-476 988,-476 988,-482 982,-488 976,-488 976,-488 20,-488 20,-488 14,-488 8,-482 8,-476 8,-476 8,-20 8,-20 8,-14 14,-8 20,-8"/>
<text text-anchor="middle" x="498" y="-472.8" font-family="Arial" font-size="14.00" fill="#000000">root </text>
<text text-anchor="middle" x="498" y="-457.8" font-family="Arial" font-size="14.00" fill="#000000">: Root</text>
</a>
</g>
</g>
<g id="clust2" class="cluster">
<title>cluster_system</title>
<g id="a_clust2"><a xlink:title="auto_unlink_shared_backstore=false&#10;cache_line_size=64&#10;eventq_index=0&#10;exit_on_work_items=false&#10;external_memory_ranges=&#10;init_param=0&#10;m5ops_base=0&#10;mem_mode=timing&#10;mem_ranges=0:536870912&#10;memories=system.mem_ctrl.dram&#10;mmap_using_noreserve=false&#10;multi_thread=true&#10;&#10;um_work_ids=16&#10;&#13;eadfile=&#10;&#13;edirect_paths=&#10;shadow_rom_ranges=&#10;shared_backstore=&#10;symbolfile=&#10;thermal_components=&#10;thermal_model=Null&#10;work_begin_ckpt_count=0&#10;work_begin_cpu_id_exit=&#45;1&#10;work_begin_exit_count=0&#10;work_cpus_ckpt_count=0&#10;work_end_ckpt_count=0&#10;work_end_exit_count=0&#10;work_item_id=&#45;1&#10;workload=system.workload">
<path fill="#e4e7eb" stroke="#000000" d="M28,-16C28,-16 968,-16 968,-16 974,-16 980,-22 980,-28 980,-28 980,-430 980,-430 980,-436 974,-442 968,-442 968,-442 28,-442 28,-442 22,-442 16,-436 16,-430 16,-430 16,-28 16,-28 16,-22 22,-16 28,-16"/>
<text text-anchor="middle" x="498" y="-426.8" font-family="Arial" font-size="14.00" fill="#000000">system </text>
<text text-anchor="middle" x="498" y="-411.8" font-family="Arial" font-size="14.00" fill="#000000">: System</text>
</a>
</g>
</g>
<g id="clust6" class="cluster">
<title>cluster_system_cpu</title>
<g id="a_clust6"><a xlink:title="LFSTSize=1024&#10;LQEntries=32&#10;LSQCheckLoads=true&#10;LSQDepCheckShift=4&#10;SQEntries=32&#10;SSITAssoc=1&#10;SSITIndexingPolicy=system.cpu.SSITIndexingPolicy&#10;SSITReplPolicy=system.cpu.SSITReplPolicy&#10;SSITSize=1024&#10;activity=0&#10;bacToFetchDelay=1&#10;backComSize=5&#10;branchPred=system.cpu.branchPred&#10;cacheLoadPorts=200&#10;cacheStorePorts=200&#10;checker=Null&#10;clk_domain=system.clk_domain&#10;commitToDecodeDelay=1&#10;commitToFetchDelay=1&#10;commitToIEWDelay=1&#10;commitToRenameDelay=1&#10;commitWidth=8&#10;cpu_id=&#45;1&#10;decodeToFetchDelay=1&#10;decodeToRenameDelay=1&#10;decodeWidth=8&#10;decoder=system.cpu.decoder0 system.cpu.decoder1&#10;decoupledFrontEnd=false&#10;dispatchWidth=8&#10;do_checkpoint_insts=true&#10;do_statistics_insts=true&#10;eventq_index=0&#10;fetchBufferSize=64&#10;fetchQueueSize=32&#10;fetchTargetWidth=32&#10;fetchToBacDelay=1&#10;fetchToDecodeDelay=1&#10;fetchTrapLatency=1&#10;fetchWidth=8&#10;forwardComSize=5&#10;function_trace=false&#10;function_trace_start=0&#10;iewToCommitDelay=1&#10;iewToDecodeDelay=1&#10;iewToFetchDelay=1&#10;iewToRenameDelay=1&#10;instQueues=system.cpu.instQueues&#10;interrupts=system.cpu.interrupts0 system.cpu.interrupts1&#10;isa=system.cpu.isa0 system.cpu.isa1&#10;issueToExecuteDelay=1&#10;issueWidth=8&#10;maxFTPerCycle=4&#10;maxTakenPredPerCycle=1&#10;max_insts_all_threads=0&#10;max_insts_any_thread=0&#10;minInstSize=1&#10;mmu=system.cpu.mmu&#10;&#10;eedsTSO=true&#10;&#10;umFTQEntries=8&#10;&#10;umPhysCCRegs=1280&#10;&#10;umPhysFloatRegs=256&#10;&#10;umPhysIntRegs=256&#10;&#10;umPhysMatRegs=2&#10;&#10;umPhysVecPredRegs=32&#10;&#10;umPhysVecRegs=256&#10;&#10;umROBEntries=192&#10;&#10;umRobs=1&#10;&#10;umThreads=2&#10;power_gating_on_idle=false&#10;power_model=&#10;power_state=system.cpu.power_state&#10;progress_interval=0&#10;pwr_gating_latency=300&#10;&#13;ecvRespBufferSize=64&#10;&#13;ecvRespMaxCachelines=1&#10;&#13;ecvRespThrottling=false&#10;&#13;enameToDecodeDelay=1&#10;&#13;enameToFetchDelay=1&#10;&#13;enameToIEWDelay=2&#10;&#13;enameToROBDelay=1&#10;&#13;enameWidth=8&#10;simpoint_start_insts=&#10;smtCommitPolicy=RoundRobin&#10;smtFetchPolicy=RoundRobin&#10;smtLSQPolicy=Partitioned&#10;smtLSQThreshold=100&#10;smtNumFetchingThreads=1&#10;smtROBPolicy=Partitioned&#10;smtROBThreshold=100&#10;socket_id=0&#10;squashWidth=NullOpt&#10;store_set_clear_period=250000&#10;switched_out=false&#10;syscallRetryLatency=10000&#10;system=system&#10;tracer=system.cpu.tracer&#10;trapLatency=13&#10;wbWidth=8&#10;workload=system.cpu.workload0 system.cpu.workload1">
<path fill="#bbc6d9" stroke="#000000" d="M68,-24C68,-24 875,-24 875,-24 881,-24 887,-30 887,-36 887,-36 887,-286 887,-286 887,-292 881,-298 875,-298 875,-298 68,-298 68,-298 62,-298 56,-292 56,-286 56,-286 56,-36 56,-36 56,-30 62,-24 68,-24"/>
<text text-anchor="middle" x="471.5" y="-282.8" font-family="Arial" font-size="14.00" fill="#000000">cpu </text>
<text text-anchor="middle" x="471.5" y="-267.8" font-family="Arial" font-size="14.00" fill="#000000">: X86O3CPU</text>
</a>
</g>
</g>
<g id="clust143" class="cluster">
<title>cluster_system_cpu_icache</title>
<g id="a_clust143"><a xlink:title="addr_ranges=0:18446744073709551615&#10;assoc=4&#10;clk_domain=system.clk_domain&#10;clusivity=mostly_incl&#10;compressor=Null&#10;data_latency=2&#10;demand_mshr_reserve=1&#10;eventq_index=0&#10;is_read_only=false&#10;max_miss_count=0&#10;move_contractions=true&#10;mshrs=4&#10;partitioning_manager=Null&#10;power_model=&#10;power_state=system.cpu.icache.power_state&#10;prefetcher=Null&#10;&#13;eplace_expansions=true&#10;&#13;eplacement_policy=system.cpu.icache.replacement_policy&#10;&#13;esponse_latency=2&#10;sequential_access=false&#10;size=32768&#10;system=system&#10;tag_latency=2&#10;tags=system.cpu.icache.tags&#10;tgts_per_mshr=20&#10;warmup_percentage=0&#10;write_allocator=Null&#10;write_buffers=8&#10;writeback_clean=false">
<path fill="#bab6ae" stroke="#000000" d="M76,-32C76,-32 238,-32 238,-32 244,-32 250,-38 250,-44 250,-44 250,-110 250,-110 250,-116 244,-122 238,-122 238,-122 76,-122 76,-122 70,-122 64,-116 64,-110 64,-110 64,-44 64,-44 64,-38 70,-32 76,-32"/>
<text text-anchor="middle" x="157" y="-106.8" font-family="Arial" font-size="14.00" fill="#000000">icache </text>
<text text-anchor="middle" x="157" y="-91.8" font-family="Arial" font-size="14.00" fill="#000000">: Cache</text>
</a>
</g>
</g>
<g id="clust149" class="cluster">
<title>cluster_system_cpu_dcache</title>
<g id="a_clust149"><a xlink:title="addr_ranges=0:18446744073709551615&#10;assoc=4&#10;clk_domain=system.clk_domain&#10;clusivity=mostly_incl&#10;compressor=Null&#10;data_latency=2&#10;demand_mshr_reserve=1&#10;eventq_index=0&#10;is_read_only=false&#10;max_miss_count=0&#10;move_contractions=true&#10;mshrs=4&#10;partitioning_manager=Null&#10;power_model=&#10;power_state=system.cpu.dcache.power_state&#10;prefetcher=Null&#10;&#13;eplace_expansions=true&#10;&#13;eplacement_policy=system.cpu.dcache.replacement_policy&#10;&#13;esponse_latency=2&#10;sequential_access=false&#10;size=32768&#10;system=system&#10;tag_latency=2&#10;tags=system.cpu.dcache.tags&#10;tgts_per_mshr=20&#10;warmup_percentage=0&#10;write_allocator=Null&#10;write_buffers=8&#10;writeback_clean=false">
<path fill="#bab6ae" stroke="#000000" d="M270,-32C270,-32 432,-32 432,-32 438,-32 444,-38 444,-44 444,-44 444,-110 444,-110 444,-116 438,-122 432,-122 432,-122 270,-122 270,-122 264,-122 258,-116 258,-110 258,-110 258,-44 258,-44 258,-38 264,-32 270,-32"/>
<text text-anchor="middle" x="351" y="-106.8" font-family="Arial" font-size="14.00" fill="#000000">dcache </text>
<text text-anchor="middle" x="351" y="-91.8" font-family="Arial" font-size="14.00" fill="#000000">: Cache</text>
</a>
</g>
</g>
<g id="clust155" class="cluster">
<title>cluster_system_cpu_interrupts0</title>
<g id="a_clust155"><a xlink:title="clk_domain=system.cpu.interrupts0.clk_domain&#10;eventq_index=0&#10;int_latency=1000&#10;pio_latency=100000&#10;system=system">
<path fill="#bab6ae" stroke="#000000" d="M590,-162C590,-162 867,-162 867,-162 873,-162 879,-168 879,-174 879,-174 879,-240 879,-240 879,-246 873,-252 867,-252 867,-252 590,-252 590,-252 584,-252 578,-246 578,-240 578,-240 578,-174 578,-174 578,-168 584,-162 590,-162"/>
<text text-anchor="middle" x="728.5" y="-236.8" font-family="Arial" font-size="14.00" fill="#000000">interrupts0 </text>
<text text-anchor="middle" x="728.5" y="-221.8" font-family="Arial" font-size="14.00" fill="#000000">: X86LocalApic</text>
</a>
</g>
</g>
<g id="clust157" class="cluster">
<title>cluster_system_cpu_interrupts1</title>
<g id="a_clust157"><a xlink:title="clk_domain=system.cpu.interrupts1.clk_domain&#10;eventq_index=0&#10;int_latency=1000&#10;pio_latency=100000&#10;system=system">
<path fill="#bab6ae" stroke="#000000" d="M281,-162C281,-162 558,-162 558,-162 564,-162 570,-168 570,-174 570,-174 570,-240 570,-240 570,-246 564,-252 558,-252 558,-252 281,-252 281,-252 275,-252 269,-246 269,-240 269,-240 269,-174 269,-174 269,-168 275,-162 281,-162"/>
<text text-anchor="middle" x="419.5" y="-236.8" font-family="Arial" font-size="14.00" fill="#000000">interrupts1 </text>
<text text-anchor="middle" x="419.5" y="-221.8" font-family="Arial" font-size="14.00" fill="#000000">: X86LocalApic</text>
</a>
</g>
</g>
<g id="clust165" class="cluster">
<title>cluster_system_membus</title>
<g id="a_clust165"><a xlink:title="clk_domain=system.clk_domain&#10;eventq_index=0&#10;forward_latency=4&#10;frontend_latency=3&#10;header_latency=1&#10;max_outstanding_snoops=512&#10;max_routing_table_size=512&#10;point_of_coherency=true&#10;point_of_unification=true&#10;power_model=&#10;power_state=system.membus.power_state&#10;&#13;esponse_latency=2&#10;snoop_filter=system.membus.snoop_filter&#10;snoop_response_latency=4&#10;system=system&#10;use_default_range=false&#10;width=16">
<path fill="#6f798c" stroke="#000000" d="M354,-306C354,-306 590,-306 590,-306 596,-306 602,-312 602,-318 602,-318 602,-384 602,-384 602,-390 596,-396 590,-396 590,-396 354,-396 354,-396 348,-396 342,-390 342,-384 342,-384 342,-318 342,-318 342,-312 348,-306 354,-306"/>
<text text-anchor="middle" x="472" y="-380.8" font-family="Arial" font-size="14.00" fill="#000000">membus </text>
<text text-anchor="middle" x="472" y="-365.8" font-family="Arial" font-size="14.00" fill="#000000">: SystemXBar</text>
</a>
</g>
</g>
<g id="clust168" class="cluster">
<title>cluster_system_mem_ctrl</title>
<g id="a_clust168"><a xlink:title="clk_domain=system.clk_domain&#10;command_window=10000&#10;disable_sanity_check=false&#10;dram=system.mem_ctrl.dram&#10;eventq_index=0&#10;mem_sched_policy=frfcfs&#10;min_reads_per_switch=16&#10;min_writes_per_switch=16&#10;power_model=&#10;power_state=system.mem_ctrl.power_state&#10;qos_policy=Null&#10;qos_priorities=1&#10;qos_priority_escalation=false&#10;qos_q_policy=fifo&#10;qos_requestors= &#160;&#160;&#160;&#160;&#160;&#160;&#160;&#160;&#160;&#160;&#160;&#160;&#160;&#160;&#10;qos_syncro_scheduler=false&#10;qos_turnaround_policy=Null&#10;static_backend_latency=10000&#10;static_frontend_latency=10000&#10;system=system&#10;write_high_thresh_perc=85&#10;write_low_thresh_perc=50">
<path fill="#bab6ae" stroke="#000000" d="M907,-162C907,-162 960,-162 960,-162 966,-162 972,-168 972,-174 972,-174 972,-240 972,-240 972,-246 966,-252 960,-252 960,-252 907,-252 907,-252 901,-252 895,-246 895,-240 895,-240 895,-174 895,-174 895,-168 901,-162 907,-162"/>
<text text-anchor="middle" x="933.5" y="-236.8" font-family="Arial" font-size="14.00" fill="#000000">mem_ctrl </text>
<text text-anchor="middle" x="933.5" y="-221.8" font-family="Arial" font-size="14.00" fill="#000000">: MemCtrl</text>
</a>
</g>
</g>
<!-- system_cpu_icache_port -->
<g id="node1" class="node">
<title>system_cpu_icache_port</title>
<path fill="#959ead" stroke="#000000" d="M138,-206C138,-206 76,-206 76,-206 70,-206 64,-200 64,-194 64,-194 64,-182 64,-182 64,-176 70,-170 76,-170 76,-170 138,-170 138,-170 144,-170 150,-176 150,-182 150,-182 150,-194 150,-194 150,-200 144,-206 138,-206"/>
<text text-anchor="middle" x="107" y="-184.3" font-family="Arial" font-size="14.00" fill="#000000">icache_port</text>
</g>
<!-- system_cpu_icache_cpu_side -->
<g id="node3" class="node">
<title>system_cpu_icache_cpu_side</title>
<path fill="#94918b" stroke="#000000" d="M229.5,-76C229.5,-76 182.5,-76 182.5,-76 176.5,-76 170.5,-70 170.5,-64 170.5,-64 170.5,-52 170.5,-52 170.5,-46 176.5,-40 182.5,-40 182.5,-40 229.5,-40 229.5,-40 235.5,-40 241.5,-46 241.5,-52 241.5,-52 241.5,-64 241.5,-64 241.5,-70 235.5,-76 229.5,-76"/>
<text text-anchor="middle" x="206" y="-54.3" font-family="Arial" font-size="14.00" fill="#000000">cpu_side</text>
</g>
<!-- system_cpu_icache_port&#45;&gt;system_cpu_icache_cpu_side -->
<g id="edge1" class="edge">
<title>system_cpu_icache_port&#45;&gt;system_cpu_icache_cpu_side</title>
<path fill="none" stroke="black" d="M121.79,-169.9C132.84,-156.95 148.19,-138.62 161,-122 170.35,-109.87 180.29,-96.06 188.45,-84.46"/>
<polygon fill="black" stroke="black" points="191.44,-86.29 194.3,-76.09 185.7,-82.28 191.44,-86.29"/>
</g>
<!-- system_cpu_dcache_port -->
<g id="node2" class="node">
<title>system_cpu_dcache_port</title>
<path fill="#959ead" stroke="#000000" d="M247.5,-206C247.5,-206 180.5,-206 180.5,-206 174.5,-206 168.5,-200 168.5,-194 168.5,-194 168.5,-182 168.5,-182 168.5,-176 174.5,-170 180.5,-170 180.5,-170 247.5,-170 247.5,-170 253.5,-170 259.5,-176 259.5,-182 259.5,-182 259.5,-194 259.5,-194 259.5,-200 253.5,-206 247.5,-206"/>
<text text-anchor="middle" x="214" y="-184.3" font-family="Arial" font-size="14.00" fill="#000000">dcache_port</text>
</g>
<!-- system_cpu_dcache_cpu_side -->
<g id="node5" class="node">
<title>system_cpu_dcache_cpu_side</title>
<path fill="#94918b" stroke="#000000" d="M423.5,-76C423.5,-76 376.5,-76 376.5,-76 370.5,-76 364.5,-70 364.5,-64 364.5,-64 364.5,-52 364.5,-52 364.5,-46 370.5,-40 376.5,-40 376.5,-40 423.5,-40 423.5,-40 429.5,-40 435.5,-46 435.5,-52 435.5,-52 435.5,-64 435.5,-64 435.5,-70 429.5,-76 423.5,-76"/>
<text text-anchor="middle" x="400" y="-54.3" font-family="Arial" font-size="14.00" fill="#000000">cpu_side</text>
</g>
<!-- system_cpu_dcache_port&#45;&gt;system_cpu_dcache_cpu_side -->
<g id="edge2" class="edge">
<title>system_cpu_dcache_port&#45;&gt;system_cpu_dcache_cpu_side</title>
<path fill="none" stroke="black" d="M248.48,-169.88C253.99,-167.21 259.64,-164.5 265,-162 304.66,-143.47 321.08,-149.67 355,-122 367.49,-111.81 378.15,-97.35 385.95,-84.85"/>
<polygon fill="black" stroke="black" points="389.01,-86.56 391.12,-76.18 382.99,-82.98 389.01,-86.56"/>
</g>
<!-- system_cpu_icache_mem_side -->
<g id="node4" class="node">
<title>system_cpu_icache_mem_side</title>
<path fill="#94918b" stroke="#000000" d="M140,-76C140,-76 84,-76 84,-76 78,-76 72,-70 72,-64 72,-64 72,-52 72,-52 72,-46 78,-40 84,-40 84,-40 140,-40 140,-40 146,-40 152,-46 152,-52 152,-52 152,-64 152,-64 152,-70 146,-76 140,-76"/>
<text text-anchor="middle" x="112" y="-54.3" font-family="Arial" font-size="14.00" fill="#000000">mem_side</text>
</g>
<!-- system_cpu_dcache_mem_side -->
<g id="node6" class="node">
<title>system_cpu_dcache_mem_side</title>
<path fill="#94918b" stroke="#000000" d="M334,-76C334,-76 278,-76 278,-76 272,-76 266,-70 266,-64 266,-64 266,-52 266,-52 266,-46 272,-40 278,-40 278,-40 334,-40 334,-40 340,-40 346,-46 346,-52 346,-52 346,-64 346,-64 346,-70 340,-76 334,-76"/>
<text text-anchor="middle" x="306" y="-54.3" font-family="Arial" font-size="14.00" fill="#000000">mem_side</text>
</g>
<!-- system_cpu_interrupts0_int_requestor -->
<g id="node7" class="node">
<title>system_cpu_interrupts0_int_requestor</title>
<path fill="#94918b" stroke="#000000" d="M669.5,-206C669.5,-206 598.5,-206 598.5,-206 592.5,-206 586.5,-200 586.5,-194 586.5,-194 586.5,-182 586.5,-182 586.5,-176 592.5,-170 598.5,-170 598.5,-170 669.5,-170 669.5,-170 675.5,-170 681.5,-176 681.5,-182 681.5,-182 681.5,-194 681.5,-194 681.5,-200 675.5,-206 669.5,-206"/>
<text text-anchor="middle" x="634" y="-184.3" font-family="Arial" font-size="14.00" fill="#000000">int_requestor</text>
</g>
<!-- system_cpu_interrupts0_int_responder -->
<g id="node8" class="node">
<title>system_cpu_interrupts0_int_responder</title>
<path fill="#94918b" stroke="#000000" d="M786.5,-206C786.5,-206 711.5,-206 711.5,-206 705.5,-206 699.5,-200 699.5,-194 699.5,-194 699.5,-182 699.5,-182 699.5,-176 705.5,-170 711.5,-170 711.5,-170 786.5,-170 786.5,-170 792.5,-170 798.5,-176 798.5,-182 798.5,-182 798.5,-194 798.5,-194 798.5,-200 792.5,-206 786.5,-206"/>
<text text-anchor="middle" x="749" y="-184.3" font-family="Arial" font-size="14.00" fill="#000000">int_responder</text>
</g>
<!-- system_cpu_interrupts0_pio -->
<g id="node9" class="node">
<title>system_cpu_interrupts0_pio</title>
<path fill="#94918b" stroke="#000000" d="M859,-206C859,-206 829,-206 829,-206 823,-206 817,-200 817,-194 817,-194 817,-182 817,-182 817,-176 823,-170 829,-170 829,-170 859,-170 859,-170 865,-170 871,-176 871,-182 871,-182 871,-194 871,-194 871,-200 865,-206 859,-206"/>
<text text-anchor="middle" x="844" y="-184.3" font-family="Arial" font-size="14.00" fill="#000000">pio</text>
</g>
<!-- system_cpu_interrupts1_int_requestor -->
<g id="node10" class="node">
<title>system_cpu_interrupts1_int_requestor</title>
<path fill="#94918b" stroke="#000000" d="M360.5,-206C360.5,-206 289.5,-206 289.5,-206 283.5,-206 277.5,-200 277.5,-194 277.5,-194 277.5,-182 277.5,-182 277.5,-176 283.5,-170 289.5,-170 289.5,-170 360.5,-170 360.5,-170 366.5,-170 372.5,-176 372.5,-182 372.5,-182 372.5,-194 372.5,-194 372.5,-200 366.5,-206 360.5,-206"/>
<text text-anchor="middle" x="325" y="-184.3" font-family="Arial" font-size="14.00" fill="#000000">int_requestor</text>
</g>
<!-- system_cpu_interrupts1_int_responder -->
<g id="node11" class="node">
<title>system_cpu_interrupts1_int_responder</title>
<path fill="#94918b" stroke="#000000" d="M477.5,-206C477.5,-206 402.5,-206 402.5,-206 396.5,-206 390.5,-200 390.5,-194 390.5,-194 390.5,-182 390.5,-182 390.5,-176 396.5,-170 402.5,-170 402.5,-170 477.5,-170 477.5,-170 483.5,-170 489.5,-176 489.5,-182 489.5,-182 489.5,-194 489.5,-194 489.5,-200 483.5,-206 477.5,-206"/>
<text text-anchor="middle" x="440" y="-184.3" font-family="Arial" font-size="14.00" fill="#000000">int_responder</text>
</g>
<!-- system_cpu_interrupts1_pio -->
<g id="node12" class="node">
<title>system_cpu_interrupts1_pio</title>
<path fill="#94918b" stroke="#000000" d="M550,-206C550,-206 520,-206 520,-206 514,-206 508,-200 508,-194 508,-194 508,-182 508,-182 508,-176 514,-170 520,-170 520,-170 550,-170 550,-170 556,-170 562,-176 562,-182 562,-182 562,-194 562,-194 562,-200 556,-206 550,-206"/>
<text text-anchor="middle" x="535" y="-184.3" font-family="Arial" font-size="14.00" fill="#000000">pio</text>
</g>
<!-- system_membus_cpu_side_ports -->
<g id="node13" class="node">
<title>system_membus_cpu_side_ports</title>
<path fill="#586070" stroke="#000000" d="M446,-350C446,-350 362,-350 362,-350 356,-350 350,-344 350,-338 350,-338 350,-326 350,-326 350,-320 356,-314 362,-314 362,-314 446,-314 446,-314 452,-314 458,-320 458,-326 458,-326 458,-338 458,-338 458,-344 452,-350 446,-350"/>
<text text-anchor="middle" x="404" y="-328.3" font-family="Arial" font-size="14.00" fill="#000000">cpu_side_ports</text>
</g>
<!-- system_membus_cpu_side_ports&#45;&gt;system_cpu_icache_mem_side -->
<g id="edge3" class="edge">
<title>system_membus_cpu_side_ports&#45;&gt;system_cpu_icache_mem_side</title>
<path fill="none" stroke="black" d="M339.9,-329.91C239.2,-327.52 53.26,-320.14 33,-298 -7.8,-253.41 13.58,-219.24 33,-162 44.8,-127.21 73.6,-94.97 92.97,-76.13"/>
<polygon fill="black" stroke="black" points="339.88,-333.41 349.96,-330.14 340.04,-326.41 339.88,-333.41"/>
</g>
<!-- system_membus_cpu_side_ports&#45;&gt;system_cpu_dcache_mem_side -->
<g id="edge4" class="edge">
<title>system_membus_cpu_side_ports&#45;&gt;system_cpu_dcache_mem_side</title>
<path fill="none" stroke="black" d="M339.57,-329.56C243.26,-326.73 70.94,-318.8 52,-298 31.65,-275.65 32.82,-185.35 52,-162 110.09,-91.28 175.41,-168.91 254,-122 272.51,-110.95 287.37,-90.81 296.39,-76.27"/>
<polygon fill="black" stroke="black" points="339.69,-333.06 349.79,-329.85 339.89,-326.07 339.69,-333.06"/>
</g>
<!-- system_membus_cpu_side_ports&#45;&gt;system_cpu_interrupts0_int_requestor -->
<g id="edge5" class="edge">
<title>system_membus_cpu_side_ports&#45;&gt;system_cpu_interrupts0_int_requestor</title>
<path fill="none" stroke="black" d="M451.51,-310.41C456.67,-308.69 461.9,-307.17 467,-306 490.24,-300.65 553.94,-310.89 574,-298 606.89,-276.86 623.27,-231.13 630.04,-206.14"/>
<polygon fill="black" stroke="black" points="449.97,-307.24 441.72,-313.89 452.31,-313.83 449.97,-307.24"/>
</g>
<!-- system_membus_cpu_side_ports&#45;&gt;system_cpu_interrupts1_int_requestor -->
<g id="edge6" class="edge">
<title>system_membus_cpu_side_ports&#45;&gt;system_cpu_interrupts1_int_requestor</title>
<path fill="none" stroke="black" d="M386.27,-304.95C384.79,-302.62 383.35,-300.28 382,-298 363.28,-266.4 343.98,-228.06 333.34,-206.3"/>
<polygon fill="black" stroke="black" points="383.61,-307.28 392,-313.75 389.48,-303.46 383.61,-307.28"/>
</g>
<!-- system_membus_mem_side_ports -->
<g id="node14" class="node">
<title>system_membus_mem_side_ports</title>
<path fill="#586070" stroke="#000000" d="M582,-350C582,-350 488,-350 488,-350 482,-350 476,-344 476,-338 476,-338 476,-326 476,-326 476,-320 482,-314 488,-314 488,-314 582,-314 582,-314 588,-314 594,-320 594,-326 594,-326 594,-338 594,-338 594,-344 588,-350 582,-350"/>
<text text-anchor="middle" x="535" y="-328.3" font-family="Arial" font-size="14.00" fill="#000000">mem_side_ports</text>
</g>
<!-- system_membus_mem_side_ports&#45;&gt;system_cpu_interrupts0_int_responder -->
<g id="edge8" class="edge">
<title>system_membus_mem_side_ports&#45;&gt;system_cpu_interrupts0_int_responder</title>
<path fill="none" stroke="black" d="M594.02,-330.27C625.51,-327.16 663.35,-318.81 691,-298 717.95,-277.72 733.68,-241.2 741.8,-216.06"/>
<polygon fill="black" stroke="black" points="745.18,-216.97 744.74,-206.39 738.48,-214.94 745.18,-216.97"/>
</g>
<!-- system_membus_mem_side_ports&#45;&gt;system_cpu_interrupts0_pio -->
<g id="edge7" class="edge">
<title>system_membus_mem_side_ports&#45;&gt;system_cpu_interrupts0_pio</title>
<path fill="none" stroke="black" d="M594.24,-331.06C664.57,-329.93 776.32,-323.93 808,-298 832.29,-278.12 840.32,-241.44 842.9,-216.16"/>
<polygon fill="black" stroke="black" points="846.39,-216.36 843.7,-206.11 839.42,-215.8 846.39,-216.36"/>
</g>
<!-- system_membus_mem_side_ports&#45;&gt;system_cpu_interrupts1_int_responder -->
<g id="edge10" class="edge">
<title>system_membus_mem_side_ports&#45;&gt;system_cpu_interrupts1_int_responder</title>
<path fill="none" stroke="black" d="M514.02,-313.93C508.76,-309.1 503.38,-303.62 499,-298 478.85,-272.17 461.8,-238.51 451.29,-215.47"/>
<polygon fill="black" stroke="black" points="454.47,-214 447.19,-206.3 448.07,-216.86 454.47,-214"/>
</g>
<!-- system_membus_mem_side_ports&#45;&gt;system_cpu_interrupts1_pio -->
<g id="edge9" class="edge">
<title>system_membus_mem_side_ports&#45;&gt;system_cpu_interrupts1_pio</title>
<path fill="none" stroke="black" d="M535,-313.87C535,-289.67 535,-245.21 535,-216.39"/>
<polygon fill="black" stroke="black" points="538.5,-216.19 535,-206.19 531.5,-216.19 538.5,-216.19"/>
</g>
<!-- system_mem_ctrl_port -->
<g id="node15" class="node">
<title>system_mem_ctrl_port</title>
<path fill="#94918b" stroke="#000000" d="M945,-206C945,-206 915,-206 915,-206 909,-206 903,-200 903,-194 903,-194 903,-182 903,-182 903,-176 909,-170 915,-170 915,-170 945,-170 945,-170 951,-170 957,-176 957,-182 957,-182 957,-194 957,-194 957,-200 951,-206 945,-206"/>
<text text-anchor="middle" x="930" y="-184.3" font-family="Arial" font-size="14.00" fill="#000000">port</text>
</g>
<!-- system_membus_mem_side_ports&#45;&gt;system_mem_ctrl_port -->
<g id="edge11" class="edge">
<title>system_membus_mem_side_ports&#45;&gt;system_mem_ctrl_port</title>
<path fill="none" stroke="black" d="M594.09,-328.66C687.28,-324.47 860.21,-314.58 883,-298 909.24,-278.9 920.99,-242.04 926.14,-216.51"/>
<polygon fill="black" stroke="black" points="929.64,-216.81 927.96,-206.34 922.75,-215.57 929.64,-216.81"/>
</g>
</g>
</svg>
