<?xml version="1.0" encoding="UTF-8" standalone="no"?>
<!DOCTYPE svg PUBLIC "-//W3C//DTD SVG 1.1//EN"
 "http://www.w3.org/Graphics/SVG/1.1/DTD/svg11.dtd">
<!-- Generated by graphviz version 2.43.0 (0)
 -->
<!-- Title: G Pages: 1 -->
<svg width="696pt" height="504pt"
 viewBox="0.00 0.00 696.00 504.00" xmlns="http://www.w3.org/2000/svg" xmlns:xlink="http://www.w3.org/1999/xlink">
<g id="graph0" class="graph" transform="scale(1 1) rotate(0) translate(4 500)">
<title>G</title>
<polygon fill="white" stroke="transparent" points="-4,4 -4,-500 692,-500 692,4 -4,4"/>
<g id="clust1" class="cluster">
<title>cluster_root</title>
<g id="a_clust1"><a xlink:title="eventq_index=0&#10;full_system=false&#10;sim_quantum=0&#10;time_sync_enable=false&#10;time_sync_period=100000000000&#10;time_sync_spin_threshold=100000000">
<path fill="#bab6ae" stroke="#000000" d="M20,-8C20,-8 668,-8 668,-8 674,-8 680,-14 680,-20 680,-20 680,-476 680,-476 680,-482 674,-488 668,-488 668,-488 20,-488 20,-488 14,-488 8,-482 8,-476 8,-476 8,-20 8,-20 8,-14 14,-8 20,-8"/>
<text text-anchor="middle" x="344" y="-472.8" font-family="Arial" font-size="14.00" fill="#000000">root </text>
<text text-anchor="middle" x="344" y="-457.8" font-family="Arial" font-size="14.00" fill="#000000">: Root</text>
</a>
</g>
</g>
<g id="clust2" class="cluster">
<title>cluster_system</title>
<g id="a_clust2"><a xlink:title="auto_unlink_shared_backstore=false&#10;cache_line_size=64&#10;eventq_index=0&#10;exit_on_work_items=false&#10;external_memory_ranges=&#10;init_param=0&#10;m5ops_base=0&#10;mem_mode=timing&#10;mem_ranges=0:536870912&#10;memories=system.mem_ctrl.dram&#10;mmap_using_noreserve=false&#10;multi_thread=false&#10;&#10;um_work_ids=16&#10;&#13;eadfile=&#10;&#13;edirect_paths=&#10;shadow_rom_ranges=&#10;shared_backstore=&#10;symbolfile=&#10;thermal_components=&#10;thermal_model=Null&#10;work_begin_ckpt_count=0&#10;work_begin_cpu_id_exit=&#45;1&#10;work_begin_exit_count=0&#10;work_cpus_ckpt_count=0&#10;work_end_ckpt_count=0&#10;work_end_exit_count=0&#10;work_item_id=&#45;1&#10;workload=system.workload">
<path fill="#e4e7eb" stroke="#000000" d="M28,-16C28,-16 660,-16 660,-16 666,-16 672,-22 672,-28 672,-28 672,-430 672,-430 672,-436 666,-442 660,-442 660,-442 28,-442 28,-442 22,-442 16,-436 16,-430 16,-430 16,-28 16,-28 16,-22 22,-16 28,-16"/>
<text text-anchor="middle" x="344" y="-426.8" font-family="Arial" font-size="14.00" fill="#000000">system </text>
<text text-anchor="middle" x="344" y="-411.8" font-family="Arial" font-size="14.00" fill="#000000">: System</text>
</a>
</g>
</g>
<g id="clust6" class="cluster">
<title>cluster_system_cpu</title>
<g id="a_clust6"><a xlink:title="branchPred=Null&#10;checker=Null&#10;clk_domain=system.clk_domain&#10;cpu_id=&#45;1&#10;decoder=system.cpu.decoder&#10;do_checkpoint_insts=true&#10;do_statistics_insts=true&#10;eventq_index=0&#10;function_trace=false&#10;function_trace_start=0&#10;interrupts=system.cpu.interrupts&#10;isa=system.cpu.isa&#10;max_insts_all_threads=0&#10;max_insts_any_thread=0&#10;mmu=system.cpu.mmu&#10;&#10;umThreads=1&#10;power_gating_on_idle=false&#10;power_model=&#10;power_state=system.cpu.power_state&#10;progress_interval=0&#10;pwr_gating_latency=300&#10;simpoint_start_insts=&#10;socket_id=0&#10;switched_out=false&#10;syscallRetryLatency=10000&#10;system=system&#10;tracer=system.cpu.tracer&#10;workload=system.cpu.workload">
<path fill="#bbc6d9" stroke="#000000" d="M68,-24C68,-24 567,-24 567,-24 573,-24 579,-30 579,-36 579,-36 579,-286 579,-286 579,-292 573,-298 567,-298 567,-298 68,-298 68,-298 62,-298 56,-292 56,-286 56,-286 56,-36 56,-36 56,-30 62,-24 68,-24"/>
<text text-anchor="middle" x="317.5" y="-282.8" font-family="Arial" font-size="14.00" fill="#000000">cpu </text>
<text text-anchor="middle" x="317.5" y="-267.8" font-family="Arial" font-size="14.00" fill="#000000">: X86TimingSimpleCPU</text>
</a>
</g>
</g>
<g id="clust17" class="cluster">
<title>cluster_system_cpu_icache</title>
<g id="a_clust17"><a xlink:title="addr_ranges=0:18446744073709551615&#10;assoc=4&#10;clk_domain=system.clk_domain&#10;clusivity=mostly_incl&#10;compressor=Null&#10;data_latency=2&#10;demand_mshr_reserve=1&#10;eventq_index=0&#10;is_read_only=false&#10;max_miss_count=0&#10;move_contractions=true&#10;mshrs=4&#10;partitioning_manager=Null&#10;power_model=&#10;power_state=system.cpu.icache.power_state&#10;prefetcher=Null&#10;&#13;eplace_expansions=true&#10;&#13;eplacement_policy=system.cpu.icache.replacement_policy&#10;&#13;esponse_latency=2&#10;sequential_access=false&#10;size=32768&#10;system=system&#10;tag_latency=2&#10;tags=system.cpu.icache.tags&#10;tgts_per_mshr=20&#10;warmup_percentage=0&#10;write_allocator=Null&#10;write_buffers=8&#10;writeback_clean=false">
<path fill="#bab6ae" stroke="#000000" d="M76,-32C76,-32 238,-32 238,-32 244,-32 250,-38 250,-44 250,-44 250,-110 250,-110 250,-116 244,-122 238,-122 238,-122 76,-122 76,-122 70,-122 64,-116 64,-110 64,-110 64,-44 64,-44 64,-38 70,-32 76,-32"/>
<text text-anchor="middle" x="157" y="-106.8" font-family="Arial" font-size="14.00" fill="#000000">icache </text>
<text text-anchor="middle" x="157" y="-91.8" font-family="Arial" font-size="14.00" fill="#000000">: Cache</text>
</a>
</g>
</g>
<g id="clust23" class="cluster">
<title>cluster_system_cpu_dcache</title>
<g id="a_clust23"><a xlink:title="addr_ranges=0:18446744073709551615&#10;assoc=4&#10;clk_domain=system.clk_domain&#10;clusivity=mostly_incl&#10;compressor=Null&#10;data_latency=2&#10;demand_mshr_reserve=1&#10;eventq_index=0&#10;is_read_only=false&#10;max_miss_count=0&#10;move_contractions=true&#10;mshrs=4&#10;partitioning_manager=Null&#10;power_model=&#10;power_state=system.cpu.dcache.power_state&#10;prefetcher=Null&#10;&#13;eplace_expansions=true&#10;&#13;eplacement_policy=system.cpu.dcache.replacement_policy&#10;&#13;esponse_latency=2&#10;sequential_access=false&#10;size=32768&#10;system=system&#10;tag_latency=2&#10;tags=system.cpu.dcache.tags&#10;tgts_per_mshr=20&#10;warmup_percentage=0&#10;write_allocator=Null&#10;write_buffers=8&#10;writeback_clean=false">
<path fill="#bab6ae" stroke="#000000" d="M270,-32C270,-32 432,-32 432,-32 438,-32 444,-38 444,-44 444,-44 444,-110 444,-110 444,-116 438,-122 432,-122 432,-122 270,-122 270,-122 264,-122 258,-116 258,-110 258,-110 258,-44 258,-44 258,-38 264,-32 270,-32"/>
<text text-anchor="middle" x="351" y="-106.8" font-family="Arial" font-size="14.00" fill="#000000">dcache </text>
<text text-anchor="middle" x="351" y="-91.8" font-family="Arial" font-size="14.00" fill="#000000">: Cache</text>
</a>
</g>
</g>
<g id="clust29" class="cluster">
<title>cluster_system_cpu_interrupts</title>
<g id="a_clust29"><a xlink:title="clk_domain=system.cpu.interrupts.clk_domain&#10;eventq_index=0&#10;int_latency=1000&#10;pio_latency=100000&#10;system=system">
<path fill="#bab6ae" stroke="#000000" d="M281,-162C281,-162 559,-162 559,-162 565,-162 571,-168 571,-174 571,-174 571,-240 571,-240 571,-246 565,-252 559,-252 559,-252 281,-252 281,-252 275,-252 269,-246 269,-240 269,-240 269,-174 269,-174 269,-168 275,-162 281,-162"/>
<text text-anchor="middle" x="420" y="-236.8" font-family="Arial" font-size="14.00" fill="#000000">interrupts </text>
<text text-anchor="middle" x="420" y="-221.8" font-family="Arial" font-size="14.00" fill="#000000">: X86LocalApic</text>
</a>
</g>
</g>
<g id="clust34" class="cluster">
<title>cluster_system_membus</title>
<g id="a_clust34"><a xlink:title="clk_domain=system.clk_domain&#10;eventq_index=0&#10;forward_latency=4&#10;frontend_latency=3&#10;header_latency=1&#10;max_outstanding_snoops=512&#10;max_routing_table_size=512&#10;point_of_coherency=true&#10;point_of_unification=true&#10;power_model=&#10;power_state=system.membus.power_state&#10;&#13;esponse_latency=2&#10;snoop_filter=system.membus.snoop_filter&#10;snoop_response_latency=4&#10;system=system&#10;use_default_range=false&#10;width=16">
<path fill="#6f798c" stroke="#000000" d="M256,-306C256,-306 492,-306 492,-306 498,-306 504,-312 504,-318 504,-318 504,-384 504,-384 504,-390 498,-396 492,-396 492,-396 256,-396 256,-396 250,-396 244,-390 244,-384 244,-384 244,-318 244,-318 244,-312 250,-306 256,-306"/>
<text text-anchor="middle" x="374" y="-380.8" font-family="Arial" font-size="14.00" fill="#000000">membus </text>
<text text-anchor="middle" x="374" y="-365.8" font-family="Arial" font-size="14.00" fill="#000000">: SystemXBar</text>
</a>
</g>
</g>
<g id="clust37" class="cluster">
<title>cluster_system_mem_ctrl</title>
<g id="a_clust37"><a xlink:title="clk_domain=system.clk_domain&#10;command_window=10000&#10;disable_sanity_check=false&#10;dram=system.mem_ctrl.dram&#10;eventq_index=0&#10;mem_sched_policy=frfcfs&#10;min_reads_per_switch=16&#10;min_writes_per_switch=16&#10;power_model=&#10;power_state=system.mem_ctrl.power_state&#10;qos_policy=Null&#10;qos_priorities=1&#10;qos_priority_escalation=false&#10;qos_q_policy=fifo&#10;qos_requestors= &#160;&#160;&#160;&#160;&#160;&#160;&#160;&#160;&#160;&#160;&#160;&#160;&#160;&#160;&#10;qos_syncro_scheduler=false&#10;qos_turnaround_policy=Null&#10;static_backend_latency=10000&#10;static_frontend_latency=10000&#10;system=system&#10;write_high_thresh_perc=85&#10;write_low_thresh_perc=50">
<path fill="#bab6ae" stroke="#000000" d="M599,-162C599,-162 652,-162 652,-162 658,-162 664,-168 664,-174 664,-174 664,-240 664,-240 664,-246 658,-252 652,-252 652,-252 599,-252 599,-252 593,-252 587,-246 587,-240 587,-240 587,-174 587,-174 587,-168 593,-162 599,-162"/>
<text text-anchor="middle" x="625.5" y="-236.8" font-family="Arial" font-size="14.00" fill="#000000">mem_ctrl </text>
<text text-anchor="middle" x="625.5" y="-221.8" font-family="Arial" font-size="14.00" fill="#000000">: MemCtrl</text>
</a>
</g>
</g>
<!-- system_cpu_icache_port -->
<g id="node1" class="node">
<title>system_cpu_icache_port</title>
<path fill="#959ead" stroke="#000000" d="M138,-206C138,-206 76,-206 76,-206 70,-206 64,-200 64,-194 64,-194 64,-182 64,-182 64,-176 70,-170 76,-170 76,-170 138,-170 138,-170 144,-170 150,-176 150,-182 150,-182 150,-194 150,-194 150,-200 144,-206 138,-206"/>
<text text-anchor="middle" x="107" y="-184.3" font-family="Arial" font-size="14.00" fill="#000000">icache_port</text>
</g>
<!-- system_cpu_icache_cpu_side -->
<g id="node3" class="node">
<title>system_cpu_icache_cpu_side</title>
<path fill="#94918b" stroke="#000000" d="M229.5,-76C229.5,-76 182.5,-76 182.5,-76 176.5,-76 170.5,-70 170.5,-64 170.5,-64 170.5,-52 170.5,-52 170.5,-46 176.5,-40 182.5,-40 182.5,-40 229.5,-40 229.5,-40 235.5,-40 241.5,-46 241.5,-52 241.5,-52 241.5,-64 241.5,-64 241.5,-70 235.5,-76 229.5,-76"/>
<text text-anchor="middle" x="206" y="-54.3" font-family="Arial" font-size="14.00" fill="#000000">cpu_side</text>
</g>
<!-- system_cpu_icache_port&#45;&gt;system_cpu_icache_cpu_side -->
<g id="edge1" class="edge">
<title>system_cpu_icache_port&#45;&gt;system_cpu_icache_cpu_side</title>
<path fill="none" stroke="black" d="M121.79,-169.9C132.84,-156.95 148.19,-138.62 161,-122 170.35,-109.87 180.29,-96.06 188.45,-84.46"/>
<polygon fill="black" stroke="black" points="191.44,-86.29 194.3,-76.09 185.7,-82.28 191.44,-86.29"/>
</g>
<!-- system_cpu_dcache_port -->
<g id="node2" class="node">
<title>system_cpu_dcache_port</title>
<path fill="#959ead" stroke="#000000" d="M247.5,-206C247.5,-206 180.5,-206 180.5,-206 174.5,-206 168.5,-200 168.5,-194 168.5,-194 168.5,-182 168.5,-182 168.5,-176 174.5,-170 180.5,-170 180.5,-170 247.5,-170 247.5,-170 253.5,-170 259.5,-176 259.5,-182 259.5,-182 259.5,-194 259.5,-194 259.5,-200 253.5,-206 247.5,-206"/>
<text text-anchor="middle" x="214" y="-184.3" font-family="Arial" font-size="14.00" fill="#000000">dcache_port</text>
</g>
<!-- system_cpu_dcache_cpu_side -->
<g id="node5" class="node">
<title>system_cpu_dcache_cpu_side</title>
<path fill="#94918b" stroke="#000000" d="M423.5,-76C423.5,-76 376.5,-76 376.5,-76 370.5,-76 364.5,-70 364.5,-64 364.5,-64 364.5,-52 364.5,-52 364.5,-46 370.5,-40 376.5,-40 376.5,-40 423.5,-40 423.5,-40 429.5,-40 435.5,-46 435.5,-52 435.5,-52 435.5,-64 435.5,-64 435.5,-70 429.5,-76 423.5,-76"/>
<text text-anchor="middle" x="400" y="-54.3" font-family="Arial" font-size="14.00" fill="#000000">cpu_side</text>
</g>
<!-- system_cpu_dcache_port&#45;&gt;system_cpu_dcache_cpu_side -->
<g id="edge2" class="edge">
<title>system_cpu_dcache_port&#45;&gt;system_cpu_dcache_cpu_side</title>
<path fill="none" stroke="black" d="M248.48,-169.88C253.99,-167.21 259.64,-164.5 265,-162 304.66,-143.47 321.08,-149.67 355,-122 367.49,-111.81 378.15,-97.35 385.95,-84.85"/>
<polygon fill="black" stroke="black" points="389.01,-86.56 391.12,-76.18 382.99,-82.98 389.01,-86.56"/>
</g>
<!-- system_cpu_icache_mem_side -->
<g id="node4" class="node">
<title>system_cpu_icache_mem_side</title>
<path fill="#94918b" stroke="#000000" d="M140,-76C140,-76 84,-76 84,-76 78,-76 72,-70 72,-64 72,-64 72,-52 72,-52 72,-46 78,-40 84,-40 84,-40 140,-40 140,-40 146,-40 152,-46 152,-52 152,-52 152,-64 152,-64 152,-70 146,-76 140,-76"/>
<text text-anchor="middle" x="112" y="-54.3" font-family="Arial" font-size="14.00" fill="#000000">mem_side</text>
</g>
<!-- system_cpu_dcache_mem_side -->
<g id="node6" class="node">
<title>system_cpu_dcache_mem_side</title>
<path fill="#94918b" stroke="#000000" d="M334,-76C334,-76 278,-76 278,-76 272,-76 266,-70 266,-64 266,-64 266,-52 266,-52 266,-46 272,-40 278,-40 278,-40 334,-40 334,-40 340,-40 346,-46 346,-52 346,-52 346,-64 346,-64 346,-70 340,-76 334,-76"/>
<text text-anchor="middle" x="306" y="-54.3" font-family="Arial" font-size="14.00" fill="#000000">mem_side</text>
</g>
<!-- system_cpu_interrupts_int_requestor -->
<g id="node7" class="node">
<title>system_cpu_interrupts_int_requestor</title>
<path fill="#94918b" stroke="#000000" d="M360.5,-206C360.5,-206 289.5,-206 289.5,-206 283.5,-206 277.5,-200 277.5,-194 277.5,-194 277.5,-182 277.5,-182 277.5,-176 283.5,-170 289.5,-170 289.5,-170 360.5,-170 360.5,-170 366.5,-170 372.5,-176 372.5,-182 372.5,-182 372.5,-194 372.5,-194 372.5,-200 366.5,-206 360.5,-206"/>
<text text-anchor="middle" x="325" y="-184.3" font-family="Arial" font-size="14.00" fill="#000000">int_requestor</text>
</g>
<!-- system_cpu_interrupts_int_responder -->
<g id="node8" class="node">
<title>system_cpu_interrupts_int_responder</title>
<path fill="#94918b" stroke="#000000" d="M550.5,-206C550.5,-206 475.5,-206 475.5,-206 469.5,-206 463.5,-200 463.5,-194 463.5,-194 463.5,-182 463.5,-182 463.5,-176 469.5,-170 475.5,-170 475.5,-170 550.5,-170 550.5,-170 556.5,-170 562.5,-176 562.5,-182 562.5,-182 562.5,-194 562.5,-194 562.5,-200 556.5,-206 550.5,-206"/>
<text text-anchor="middle" x="513" y="-184.3" font-family="Arial" font-size="14.00" fill="#000000">int_responder</text>
</g>
<!-- system_cpu_interrupts_pio -->
<g id="node9" class="node">
<title>system_cpu_interrupts_pio</title>
<path fill="#94918b" stroke="#000000" d="M433,-206C433,-206 403,-206 403,-206 397,-206 391,-200 391,-194 391,-194 391,-182 391,-182 391,-176 397,-170 403,-170 403,-170 433,-170 433,-170 439,-170 445,-176 445,-182 445,-182 445,-194 445,-194 445,-200 439,-206 433,-206"/>
<text text-anchor="middle" x="418" y="-184.3" font-family="Arial" font-size="14.00" fill="#000000">pio</text>
</g>
<!-- system_membus_cpu_side_ports -->
<g id="node10" class="node">
<title>system_membus_cpu_side_ports</title>
<path fill="#586070" stroke="#000000" d="M348,-350C348,-350 264,-350 264,-350 258,-350 252,-344 252,-338 252,-338 252,-326 252,-326 252,-320 258,-314 264,-314 264,-314 348,-314 348,-314 354,-314 360,-320 360,-326 360,-326 360,-338 360,-338 360,-344 354,-350 348,-350"/>
<text text-anchor="middle" x="306" y="-328.3" font-family="Arial" font-size="14.00" fill="#000000">cpu_side_ports</text>
</g>
<!-- system_membus_cpu_side_ports&#45;&gt;system_cpu_icache_mem_side -->
<g id="edge3" class="edge">
<title>system_membus_cpu_side_ports&#45;&gt;system_cpu_icache_mem_side</title>
<path fill="none" stroke="black" d="M241.86,-327.66C165.54,-323.01 46.64,-313.39 33,-298 -7.09,-252.77 13.58,-219.24 33,-162 44.8,-127.21 73.6,-94.97 92.97,-76.13"/>
<polygon fill="black" stroke="black" points="241.68,-331.15 251.87,-328.25 242.1,-324.16 241.68,-331.15"/>
</g>
<!-- system_membus_cpu_side_ports&#45;&gt;system_cpu_dcache_mem_side -->
<g id="edge4" class="edge">
<title>system_membus_cpu_side_ports&#45;&gt;system_cpu_dcache_mem_side</title>
<path fill="none" stroke="black" d="M241.75,-331.9C174.76,-331.31 76.22,-325.57 52,-298 32.05,-275.29 32.82,-185.35 52,-162 110.09,-91.28 175.41,-168.91 254,-122 272.51,-110.95 287.37,-90.81 296.39,-76.27"/>
<polygon fill="black" stroke="black" points="241.78,-335.4 251.8,-331.96 241.82,-328.4 241.78,-335.4"/>
</g>
<!-- system_membus_cpu_side_ports&#45;&gt;system_cpu_interrupts_int_requestor -->
<g id="edge5" class="edge">
<title>system_membus_cpu_side_ports&#45;&gt;system_cpu_interrupts_int_requestor</title>
<path fill="none" stroke="black" d="M309.66,-303.68C313.51,-274.89 319.46,-230.42 322.7,-206.19"/>
<polygon fill="black" stroke="black" points="306.15,-303.5 308.29,-313.87 313.09,-304.42 306.15,-303.5"/>
</g>
<!-- system_membus_mem_side_ports -->
<g id="node11" class="node">
<title>system_membus_mem_side_ports</title>
<path fill="#586070" stroke="#000000" d="M484,-350C484,-350 390,-350 390,-350 384,-350 378,-344 378,-338 378,-338 378,-326 378,-326 378,-320 384,-314 390,-314 390,-314 484,-314 484,-314 490,-314 496,-320 496,-326 496,-326 496,-338 496,-338 496,-344 490,-350 484,-350"/>
<text text-anchor="middle" x="437" y="-328.3" font-family="Arial" font-size="14.00" fill="#000000">mem_side_ports</text>
</g>
<!-- system_membus_mem_side_ports&#45;&gt;system_cpu_interrupts_int_responder -->
<g id="edge7" class="edge">
<title>system_membus_mem_side_ports&#45;&gt;system_cpu_interrupts_int_responder</title>
<path fill="none" stroke="black" d="M446.17,-313.87C459.29,-289.35 483.55,-244.03 498.95,-215.26"/>
<polygon fill="black" stroke="black" points="502.17,-216.66 503.8,-206.19 496,-213.35 502.17,-216.66"/>
</g>
<!-- system_membus_mem_side_ports&#45;&gt;system_cpu_interrupts_pio -->
<g id="edge6" class="edge">
<title>system_membus_mem_side_ports&#45;&gt;system_cpu_interrupts_pio</title>
<path fill="none" stroke="black" d="M434.71,-313.87C431.47,-289.67 425.52,-245.21 421.67,-216.39"/>
<polygon fill="black" stroke="black" points="425.1,-215.64 420.3,-206.19 418.16,-216.57 425.1,-215.64"/>
</g>
<!-- system_mem_ctrl_port -->
<g id="node12" class="node">
<title>system_mem_ctrl_port</title>
<path fill="#94918b" stroke="#000000" d="M637,-206C637,-206 607,-206 607,-206 601,-206 595,-200 595,-194 595,-194 595,-182 595,-182 595,-176 601,-170 607,-170 607,-170 637,-170 637,-170 643,-170 649,-176 649,-182 649,-182 649,-194 649,-194 649,-200 643,-206 637,-206"/>
<text text-anchor="middle" x="622" y="-184.3" font-family="Arial" font-size="14.00" fill="#000000">port</text>
</g>
<!-- system_membus_mem_side_ports&#45;&gt;system_mem_ctrl_port -->
<g id="edge8" class="edge">
<title>system_membus_mem_side_ports&#45;&gt;system_mem_ctrl_port</title>
<path fill="none" stroke="black" d="M496.05,-328.69C522.75,-324.89 553.13,-316.39 575,-298 599.7,-277.23 611.77,-241.07 617.42,-216.13"/>
<polygon fill="black" stroke="black" points="620.87,-216.71 619.46,-206.21 614.02,-215.3 620.87,-216.71"/>
</g>
</g>
</svg>
